<?xml version="1.0" standalone="no"?>
<!DOCTYPE svg PUBLIC "-//W3C//DTD SVG 20010904//EN"
 "http://www.w3.org/TR/2001/REC-SVG-20010904/DTD/svg10.dtd">
<svg version="1.0" xmlns="http://www.w3.org/2000/svg"
 width="663.000000pt" height="663.000000pt" viewBox="0 0 663.000000 663.000000"
 preserveAspectRatio="xMidYMid meet">
<metadata>
Created by potrace 1.14, written by Peter Selinger 2001-2017
</metadata>
<g transform="translate(0.000000,663.000000) scale(0.100000,-0.100000)"
fill="#000000" stroke="none">
<path d="M3345 6608 c-8 -24 -57 -222 -60 -248 -2 -14 -12 -52 -21 -85 -32
-117 -36 -145 -26 -159 5 -6 26 -41 46 -78 l36 -68 -44 6 c-66 10 -95 -1 -112
-41 -24 -58 -17 -125 14 -125 8 0 30 11 48 25 l33 25 15 -22 c9 -12 16 -35 16
-51 0 -25 -3 -28 -21 -24 -21 6 -21 3 -16 -45 4 -28 13 -58 21 -67 20 -22 6
-42 -25 -38 -72 12 -111 -67 -47 -94 33 -13 63 -15 106 -5 36 8 25 -34 -15
-59 -18 -11 -32 -23 -33 -26 0 -3 16 -27 36 -53 39 -52 45 -70 33 -102 -4 -11
-10 -36 -13 -55 -8 -47 -12 -68 -24 -114 -9 -35 -18 -76 -26 -125 -5 -28 -28
-125 -33 -140 -3 -8 -7 -22 -8 -30 -7 -45 -16 -97 -21 -112 -5 -17 -11 -44
-20 -93 -2 -16 -10 -48 -16 -70 -11 -44 -19 -80 -23 -110 -2 -11 -4 -20 -5
-20 -2 0 -4 -9 -5 -20 -2 -11 -8 -42 -15 -70 -7 -27 -14 -59 -15 -70 -2 -11
-15 -70 -29 -131 -14 -62 -28 -129 -32 -149 -12 -76 -18 -81 -41 -33 -12 24
-22 47 -22 52 1 5 -3 12 -8 15 -6 5 -259 506 -287 571 -17 40 -86 164 -86 156
0 -9 46 -156 60 -191 7 -17 62 -180 65 -195 1 -3 4 -12 8 -20 3 -8 22 -67 42
-130 20 -63 40 -123 46 -132 5 -10 9 -26 9 -36 0 -10 5 -23 12 -30 7 -7 8 -12
4 -12 -5 0 -3 -7 4 -15 7 -8 10 -15 7 -15 -3 0 1 -16 9 -35 8 -21 10 -35 4
-35 -5 0 -10 5 -10 10 0 6 -5 10 -10 10 -6 0 -65 37 -133 83 -122 84 -538 364
-847 571 -91 61 -168 115 -171 120 -4 4 -11 7 -17 5 -5 -2 17 -44 50 -94 32
-49 62 -97 66 -105 3 -8 10 -19 15 -25 5 -5 110 -167 233 -360 289 -449 288
-448 293 -460 2 -5 8 -14 13 -20 19 -22 98 -147 98 -156 0 -5 5 -9 10 -9 6 0
10 -6 10 -14 0 -10 -87 16 -302 89 -167 56 -310 105 -318 107 -52 18 -156 51
-165 53 -5 1 -23 7 -40 14 -50 19 -55 21 -54 13 0 -4 140 -77 311 -162 387
-193 480 -241 476 -245 -2 -2 -35 -9 -73 -15 -39 -6 -81 -13 -95 -16 -14 -2
-38 -7 -55 -9 -16 -3 -40 -7 -53 -9 -22 -5 -218 -39 -287 -51 -16 -3 -46 -8
-65 -11 -19 -4 -45 -8 -56 -10 -12 -1 -39 -5 -60 -9 -22 -4 -50 -8 -64 -10
-14 -2 -25 -4 -25 -5 0 -2 -24 -7 -75 -14 -25 -4 -52 -9 -60 -11 -8 -2 -31 -6
-50 -9 -36 -5 -238 -40 -300 -51 -19 -4 -46 -8 -60 -10 -14 -3 -35 -6 -48 -9
-17 -4 -26 2 -37 23 -26 51 -73 68 -135 47 -14 -5 -31 -17 -37 -26 -7 -10 -49
-27 -95 -40 -46 -12 -84 -23 -86 -25 -4 -3 83 -33 114 -39 35 -7 74 -25 74
-35 0 -16 59 -34 92 -27 18 3 44 18 59 32 l26 25 74 -15 c71 -14 136 -25 151
-27 4 0 22 -4 39 -9 18 -5 48 -12 68 -15 20 -3 47 -8 59 -10 23 -5 50 -11 92
-20 14 -3 36 -7 50 -10 14 -3 50 -10 80 -16 30 -5 66 -12 80 -15 14 -3 68 -13
120 -24 52 -11 113 -22 135 -25 22 -4 54 -10 70 -15 17 -4 37 -8 45 -9 8 0 80
-14 160 -31 80 -17 159 -32 176 -35 95 -14 99 -10 -337 -228 -228 -114 -409
-207 -403 -207 6 0 89 26 185 59 302 102 672 221 675 218 3 -3 -163 -255 -176
-267 -3 -3 -30 -43 -60 -90 -30 -47 -61 -91 -67 -98 -7 -7 -13 -17 -13 -22 0
-5 -6 -15 -13 -22 -22 -25 -57 -77 -57 -87 0 -5 -3 -11 -8 -13 -4 -1 -72 -100
-151 -218 -80 -118 -173 -257 -208 -307 -34 -51 -60 -93 -57 -93 4 0 29 15 57
32 172 111 213 138 224 147 7 6 15 11 18 11 5 0 52 30 245 155 36 24 99 64
140 90 41 26 104 67 140 90 36 23 97 62 135 87 39 25 108 69 155 100 47 30 96
60 109 68 22 11 23 11 17 -6 -11 -27 -257 -757 -259 -769 -2 -5 -5 -14 -8 -20
-8 -13 -22 -71 -16 -65 3 3 96 185 207 405 177 351 229 448 219 410 -2 -8 9
-77 16 -105 1 -3 5 -23 9 -45 4 -22 14 -74 23 -115 8 -41 17 -86 19 -100 2
-14 7 -36 10 -50 3 -14 8 -35 10 -47 2 -13 6 -33 8 -45 13 -63 27 -136 31
-158 3 -14 9 -47 15 -75 22 -113 52 -262 56 -285 5 -29 16 -90 19 -105 6 -26
25 -123 30 -150 17 -94 17 -93 -4 -100 -12 -4 -18 -12 -14 -21 4 -11 -4 -14
-34 -14 -51 0 -73 -24 -76 -81 l-2 -44 45 -1 c64 -1 64 -1 36 -35 -14 -17 -26
-34 -26 -37 0 -4 11 -20 25 -36 31 -36 31 -47 4 -72 -16 -14 -23 -16 -26 -6
-3 7 -17 18 -31 25 -25 12 -33 13 -68 9 -16 -3 -37 -58 -36 -94 1 -54 31 -73
117 -73 41 0 75 -3 75 -6 0 -4 -9 -18 -21 -33 -11 -14 -19 -30 -17 -34 11 -28
84 -142 90 -142 4 0 14 10 21 23 7 12 27 45 44 73 l30 50 -23 30 c-13 16 -24
31 -24 34 0 3 34 5 76 5 71 0 77 2 100 29 27 30 27 61 3 112 -20 39 -67 44
-100 10 -30 -32 -43 -32 -57 -1 -15 33 -16 28 13 59 31 34 31 47 0 79 -31 30
-21 40 34 31 47 -8 57 5 47 61 -10 50 -32 68 -77 62 -28 -4 -36 -2 -33 8 3 7
-4 21 -15 32 -17 16 -19 24 -10 58 5 22 12 51 15 65 3 14 16 75 29 135 13 61
26 121 29 135 3 14 7 34 10 45 7 33 47 216 51 237 2 11 6 27 9 36 3 9 7 28 10
42 7 34 19 92 54 255 17 77 33 151 36 165 2 14 10 48 16 75 18 74 18 78 19 98
1 9 4 17 9 17 4 0 97 -180 207 -400 109 -220 200 -398 202 -397 1 2 -50 160
-113 353 -64 192 -117 354 -118 359 -3 13 -26 85 -33 105 -19 48 -7 45 100
-28 194 -133 556 -377 575 -387 9 -5 19 -12 22 -15 3 -3 115 -79 250 -169 135
-90 254 -171 264 -180 20 -17 11 -1 -81 142 -24 37 -43 72 -43 77 0 6 -4 10
-8 10 -4 0 -29 35 -56 78 -66 108 -193 305 -205 319 -6 7 -11 15 -11 18 0 3
-27 46 -60 95 -33 49 -60 94 -60 100 0 5 -4 10 -10 10 -5 0 -10 7 -10 15 0 8
-4 15 -10 15 -5 0 -10 6 -10 13 0 7 -9 23 -20 35 -11 12 -20 23 -20 26 0 6
-138 222 -172 269 -22 32 -19 43 9 28 24 -13 835 -283 839 -279 1 2 -177 93
-396 203 -270 136 -393 202 -381 206 9 4 37 10 61 13 42 6 59 8 128 21 15 3
54 10 87 15 33 5 71 12 85 15 45 8 394 67 415 70 18 3 80 13 170 30 17 3 46 7
65 10 19 3 46 7 60 10 14 3 41 7 60 10 33 5 54 8 110 20 14 3 41 7 60 9 38 6
83 13 117 21 15 4 23 -1 28 -14 7 -24 52 -54 79 -54 47 1 57 4 88 31 19 17 60
36 98 46 36 9 72 20 80 23 8 3 -27 18 -78 33 -52 16 -99 36 -106 45 -7 10 -31
19 -57 22 -38 4 -50 1 -77 -22 -18 -15 -32 -33 -32 -41 0 -9 -4 -13 -9 -10 -5
3 -26 9 -47 12 -42 7 -47 8 -84 17 -14 4 -36 9 -50 11 -14 3 -61 12 -105 21
-44 9 -91 19 -105 21 -14 3 -41 9 -60 14 -19 5 -51 11 -71 14 -20 3 -42 8 -50
10 -8 3 -25 7 -39 10 -14 2 -95 18 -180 36 -85 18 -163 34 -173 36 -10 2 -26
5 -35 8 -9 3 -35 8 -57 11 -22 4 -48 8 -57 11 -21 6 -53 13 -98 20 -19 3 -42
10 -51 15 -9 4 -18 6 -20 4 -3 -2 -22 0 -44 6 -22 5 -58 12 -80 15 -22 3 -46
9 -52 13 -7 4 130 78 318 171 182 91 353 177 380 192 28 15 51 27 52 27 11 -1
59 23 55 26 -2 3 -162 -47 -354 -111 -192 -64 -356 -117 -364 -119 -8 -2 -16
-4 -17 -5 -2 -2 -6 -3 -10 -5 -10 -2 -41 -14 -71 -26 -13 -5 -25 -9 -27 -9 -4
0 75 124 92 145 4 6 67 98 138 205 72 107 218 325 325 483 107 158 199 297
205 307 5 11 13 20 17 20 5 0 8 6 8 14 0 7 7 19 15 26 25 21 9 23 -22 4 -15
-10 -30 -21 -33 -25 -4 -5 -33 -23 -118 -74 -9 -6 -48 -31 -87 -56 -38 -25
-108 -70 -155 -100 -47 -30 -89 -57 -95 -62 -5 -4 -95 -62 -200 -128 -104 -66
-202 -129 -217 -140 -15 -10 -30 -19 -33 -19 -3 0 -11 -5 -18 -10 -33 -29
-272 -178 -275 -171 -2 6 124 389 247 751 22 63 38 117 36 119 -2 2 -14 -19
-27 -45 -13 -27 -25 -51 -28 -54 -3 -3 -81 -157 -174 -343 -93 -185 -171 -335
-174 -332 -4 4 -24 100 -37 180 -2 11 -6 31 -8 45 -15 70 -29 138 -33 160 -2
14 -7 39 -11 55 -3 17 -8 37 -9 45 -7 38 -14 77 -18 95 -2 11 -11 58 -20 105
-9 47 -18 96 -21 110 -3 14 -10 48 -15 75 -6 28 -12 61 -15 75 -3 14 -8 41
-11 60 -3 19 -7 43 -10 52 -3 10 -7 30 -10 45 -2 16 -7 39 -9 53 -3 14 -7 36
-10 50 -2 14 -9 45 -14 70 -17 81 -20 109 -13 112 4 2 23 25 42 52 34 47 34
49 16 60 -30 17 -66 57 -60 67 2 4 15 5 27 1 54 -18 131 3 140 38 8 31 -32 67
-71 64 -48 -3 -58 9 -35 42 10 16 19 36 18 44 -1 8 2 25 6 37 7 18 4 22 -14
25 -17 2 -22 10 -23 36 -1 48 18 59 59 33 59 -36 77 -25 77 45 0 82 -53 123
-133 102 -25 -6 -27 -5 -22 13 4 11 22 48 41 81 l35 61 -16 66 c-9 36 -18 77
-21 91 -3 14 -10 43 -16 65 -5 22 -12 48 -14 57 -2 10 -6 26 -8 36 -2 9 -9 37
-16 62 -16 61 -21 83 -22 98 -1 6 -3 12 -5 12 -2 0 -6 -6 -8 -12z"/>
</g>
</svg>
